<?xml version="1.0" encoding="utf-8"?>
<!-- Generator: Adobe Illustrator 23.0.3, SVG Export Plug-In . SVG Version: 6.00 Build 0)  -->
<svg version="1.1" id="Layer_1" xmlns="http://www.w3.org/2000/svg" xmlns:xlink="http://www.w3.org/1999/xlink" x="0px" y="0px"
	 viewBox="0 0 1133.9 1133.9" style="enable-background:new 0 0 1133.9 1133.9;" xml:space="preserve">
<style type="text/css">
	.st0{fill:#010101;}
</style>
<g>
	<path class="st0" d="M908.1,518.9c1.4-39-55.7-64.7-70.4-21.9c-10,28.1,36.2,42.8,44.3,14.8c0.5-1,0.5-2.4,1-3.3
		c0.5,1.4,1.4,2.9,1.4,4.8c2.4,7.6-0.5,16.2-3.8,22.8c-5.2,10.5-13.8,16.2-23.3,17.1c-4.3-0.5-8.6-1-12.8-0.5
		c-3.8-1-7.1-1.9-10.5-3.3c-41.9-19.5-37.1-70.9-25.2-107.1c12.4-36.2,35.7-68.5,49.5-104.2c12.4-32.4,15.7-69,5.7-102.3
		c-15.7-51.9-77.6-83.7-126.6-57.6c-25.7,13.8-39,45.2-68,53.3c-18.6,5.2-37.6-10-42.3-26.6c-2.9-9,0-19,3.8-27.1
		c1.9-3.8,4.8-7.6,8.1-10.5c17.1,8.6,19,15.7,4.3,21.4c-4.3,1.9-2.4,9.5,2.4,9c40.4-4.8,31.9-59-7.6-59c-19.5,0-31.9,22.8-37.6,38.1
		c-7.6,19.5-2.4,46.2,11.9,61.9c35.7,38.5,81.4,22.8,113.2-10c18.1-18.6,35.2-35.2,63.3-28.5c31.4,7.6,48.1,38.5,50.4,68
		c5.7,66.1-47.1,120.4-64.7,180.8c-12.8,43.8-2.9,92.8,34.3,118c-36.6,25.2-47.1,74.2-34.3,118c17.6,60.4,70.4,114.7,64.7,180.8
		c-2.9,30-19,60.9-50.4,68c-28.1,6.7-44.7-9.5-63.3-28.5c-32.4-32.8-77.6-48.5-113.2-10c-14.3,15.2-19.5,41.9-11.9,61.9
		c6.2,15.2,18.6,38.1,37.6,38.1c39,0.5,47.6-54.2,7.6-59c-4.8-0.5-6.7,7.1-2.4,9c14.3,5.7,12.8,12.8-4.3,21.4
		c-3.3-2.9-6.2-6.2-8.1-10.5c-3.8-8.1-6.7-18.1-3.8-27.1c5.2-16.7,23.8-31.9,42.3-26.6c29,8.1,42.3,39.5,68,53.3
		c49,26.2,110.9-5.7,126.6-57.6c10-33.8,7.1-69.9-5.7-102.3c-13.8-35.7-37.1-68-49.5-104.2c-12.4-36.2-16.7-88,25.2-107.1
		c3.3-1.4,7.1-2.9,10.5-3.3c4.3,0.5,8.6,0,12.8-0.5c9.5,1.4,18.6,6.7,23.3,17.1c3.3,6.7,6.2,15.2,3.8,22.8c-0.5,1.4-1,3.3-1.4,4.8
		c0-1-0.5-2.4-1-3.3c-8.1-27.6-53.8-13.3-44.3,14.8c15.2,42.8,72.3,16.7,70.4-21.9c-1-18.6-9.5-36.2-23.3-47.6
		C898.1,555,907.1,537.4,908.1,518.9z"/>
	<path class="st0" d="M225.8,518.9c-1.4-39,55.7-64.7,70.4-21.9c10,28.1-36.2,42.8-44.3,14.8c-0.5-1-0.5-2.4-1-3.3
		c-0.5,1.4-1.4,2.9-1.4,4.8c-2.4,7.6,0.5,16.2,3.8,22.8c5.2,10.5,13.8,16.2,23.3,17.1c4.3-0.5,8.6-1,12.8-0.5
		c3.8-1,7.1-1.9,10.5-3.3c41.9-19.5,37.1-70.9,25.2-107.1c-12.4-36.2-35.7-68.5-49.5-104.2c-12.4-32.4-15.7-69-5.7-102.3
		c15.7-51.9,77.6-83.7,126.6-57.6c25.7,13.8,39,45.2,68,53.3c18.6,5.2,37.6-10,42.3-26.6c2.9-9,0-19-3.8-27.1
		c-1.9-3.8-4.8-7.6-8.1-10.5c-17.1,8.6-19,15.7-4.3,21.4c4.3,1.9,2.4,9.5-2.4,9c-40.4-4.8-31.9-59,7.6-59
		c19.5,0,31.9,22.8,37.6,38.1c7.6,19.5,2.4,46.2-11.9,61.9c-35.7,38.5-81.4,22.8-113.2-10c-18.1-18.6-35.2-35.2-63.3-28.5
		c-31.4,7.6-48.1,38.5-50.4,68c-5.7,66.1,47.1,120.4,64.7,180.8c12.8,43.8,2.9,92.8-34.3,118c36.6,25.2,47.1,74.2,34.3,118
		c-17.6,60.4-70.4,114.7-64.7,180.8c2.9,30,19,60.9,50.4,68c28.1,6.7,44.7-9.5,63.3-28.5c32.4-32.8,77.6-48.5,113.2-10
		c14.3,15.2,19.5,41.9,11.9,61.9c-6.2,15.2-18.6,38.1-37.6,38.1c-39,0.5-47.6-54.2-7.6-59c4.8-0.5,6.7,7.1,2.4,9
		c-14.3,5.7-12.8,12.8,4.3,21.4c3.3-2.9,6.2-6.2,8.1-10.5c3.8-8.1,6.7-18.1,3.8-27.1c-5.2-16.7-23.8-31.9-42.3-26.6
		c-29,8.1-42.3,39.5-68,53.3c-49,26.2-110.9-5.7-126.6-57.6c-10-33.8-7.1-69.9,5.7-102.3c13.8-35.7,37.1-68,49.5-104.2
		c12.4-36.2,16.7-88-25.2-107.1c-3.3-1.4-7.1-2.9-10.5-3.3c-4.3,0.5-8.6,0-12.8-0.5c-9.5,1.4-18.6,6.7-23.3,17.1
		c-3.3,6.7-6.2,15.2-3.8,22.8c0.5,1.4,1,3.3,1.4,4.8c0-1,0.5-2.4,1-3.3c8.1-27.6,53.8-13.3,44.3,14.8
		c-15.2,42.8-72.3,16.7-70.4-21.9c1-18.6,10-36.2,23.3-47.6C235.8,555,226.7,537.4,225.8,518.9z"/>
</g>
</svg>
